<?xml version="1.0" standalone="no"?>
<!DOCTYPE svg PUBLIC "-//W3C//DTD SVG 20010904//EN"
 "http://www.w3.org/TR/2001/REC-SVG-20010904/DTD/svg10.dtd">
<svg version="1.0" xmlns="http://www.w3.org/2000/svg"
 width="1658.000000pt" height="364.000000pt" viewBox="0 0 1658.000000 364.000000"
 preserveAspectRatio="xMidYMid meet">

<g transform="translate(0.000000,364.000000) scale(0.100000,-0.100000)"
fill="#000000" stroke="none">
<path d="M11010 3090 c-169 -14 -281 -46 -433 -121 -293 -146 -526 -432 -606
-746 -27 -103 -45 -256 -37 -317 25 -211 295 -272 402 -90 23 38 29 64 35 148
28 357 258 613 617 685 85 18 182 13 284 -13 324 -82 534 -333 564 -670 5 -64
11 -84 30 -103 33 -33 78 -30 115 6 33 33 35 54 18 178 -40 297 -227 557 -493
688 -144 72 -223 88 -406 88 -139 0 -164 -3 -245 -27 -276 -82 -484 -268 -586
-523 -45 -112 -58 -166 -66 -272 -5 -74 -10 -98 -25 -113 -18 -18 -22 -18 -41
-5 -20 14 -22 23 -21 113 4 346 252 699 593 844 142 60 209 73 391 74 143 1
176 -2 250 -22 358 -98 622 -365 722 -730 32 -116 31 -363 -1 -482 -48 -179
-147 -346 -282 -475 -175 -167 -370 -253 -621 -275 -83 -7 -104 -12 -124 -31
-34 -32 -33 -87 2 -120 23 -22 33 -24 107 -22 107 2 268 35 380 79 314 121
568 389 679 714 96 283 73 628 -60 895 -84 169 -229 336 -385 443 -156 107
-365 185 -531 197 -39 3 -87 7 -106 9 -19 1 -73 0 -120 -4z"/>
<path d="M14960 3089 c-115 -9 -199 -25 -284 -56 -445 -160 -739 -535 -788
-1004 -9 -89 -8 -113 5 -160 19 -63 70 -123 125 -146 79 -33 187 -9 243 54 42
48 50 73 60 180 26 291 169 507 414 624 162 78 310 96 470 59 320 -73 540
-317 576 -638 13 -112 22 -135 56 -151 37 -17 59 -13 94 16 l32 27 -6 86 c-21
327 -214 618 -502 757 -221 106 -462 120 -700 42 -334 -111 -575 -425 -603
-788 -6 -79 -10 -96 -27 -107 -18 -12 -24 -11 -44 3 -23 16 -24 19 -18 112 8
125 37 232 96 356 129 271 353 456 649 537 65 18 105 21 247 21 198 0 266 -14
420 -87 155 -73 253 -150 358 -280 72 -89 159 -264 188 -376 32 -126 37 -316
11 -440 -68 -329 -289 -598 -594 -724 -113 -47 -185 -64 -312 -75 -91 -8 -112
-13 -132 -32 -48 -45 -19 -130 50 -143 48 -9 206 10 315 39 471 125 823 546
859 1027 27 356 -88 679 -328 918 -258 258 -575 377 -930 349z"/>
<path d="M1720 3050 c-19 -4 -51 -14 -70 -24 -55 -29 -1013 -989 -1047 -1050
l-28 -51 -3 -524 c-2 -387 0 -532 9 -553 24 -58 104 -72 145 -26 18 19 19 52
24 549 l5 529 490 490 c352 352 496 490 512 490 20 0 43 -25 43 -46 0 -5 -196
-204 -435 -444 -317 -317 -435 -442 -435 -458 0 -13 6 -35 14 -50 8 -15 204
-215 436 -446 249 -248 420 -424 418 -433 -2 -9 -13 -22 -26 -31 -22 -14 -28
-10 -230 191 -119 118 -218 208 -232 212 -59 14 -118 -45 -105 -104 4 -19 75
-97 218 -238 171 -170 221 -213 259 -228 129 -48 275 44 286 181 9 103 9 102
-423 534 -217 217 -395 400 -395 405 0 6 176 186 391 400 262 261 398 403 410
430 69 150 -67 324 -231 295z"/>
<path d="M2365 3044 c-22 -8 -57 -31 -77 -51 -69 -67 -69 -70 -66 -617 l3
-488 28 -24 c36 -31 78 -31 114 0 l28 24 5 488 c5 450 6 488 23 498 12 8 22 8
35 0 16 -10 17 -73 22 -1022 5 -965 6 -1011 24 -1030 23 -27 65 -36 100 -22
59 22 57 -15 54 1088 l-3 1007 -22 42 c-54 101 -164 145 -268 107z"/>
<path d="M4398 3050 c-116 -20 -224 -77 -305 -161 -44 -47 -1158 -1773 -1175
-1821 -17 -49 -5 -141 24 -186 34 -51 114 -92 177 -92 52 0 116 27 146 59 11
13 272 412 580 889 361 558 569 871 586 881 28 15 62 11 94 -13 20 -14 20 -29
26 -703 5 -624 7 -693 23 -743 62 -190 223 -331 415 -361 260 -42 521 139 576
398 12 55 15 192 15 721 l0 654 -29 29 c-38 37 -82 39 -116 4 l-25 -24 0 -639
c0 -391 -4 -660 -10 -693 -32 -170 -165 -281 -335 -282 -120 0 -222 54 -283
151 -62 95 -62 99 -62 827 0 642 -1 661 -21 705 -77 170 -287 202 -421 63 -20
-21 -282 -420 -583 -888 -300 -467 -553 -855 -562 -862 -18 -14 -40 -7 -54 19
-9 16 76 153 551 893 399 622 574 886 605 913 69 61 129 85 221 90 67 4 89 1
130 -17 76 -34 120 -68 158 -124 66 -97 66 -97 66 -832 l0 -660 24 -50 c86
-185 349 -195 453 -17 l28 47 5 700 5 700 27 57 c31 68 98 136 165 169 41 20
63 24 148 24 89 0 105 -3 150 -27 102 -53 166 -145 185 -265 6 -33 10 -416 10
-905 l0 -847 26 -20 c38 -30 80 -27 115 9 l30 29 -3 893 -3 893 -23 66 c-123
365 -577 475 -847 206 -37 -37 -76 -89 -95 -126 -59 -117 -60 -131 -60 -854
l0 -658 -25 -24 c-16 -17 -35 -25 -60 -25 -25 0 -44 8 -60 25 l-25 24 0 654
c0 423 -4 674 -11 713 -25 140 -137 297 -255 357 -97 49 -224 72 -316 57z"/>
<path d="M7913 3049 c-59 -10 -142 -41 -193 -72 -99 -60 -126 -99 -712 -1010
l-573 -892 0 -76 c0 -67 3 -80 29 -117 75 -108 241 -121 327 -26 14 16 268
405 564 864 296 459 548 849 561 867 44 59 130 49 153 -18 8 -22 11 -234 11
-688 0 -515 3 -667 14 -706 67 -254 319 -419 573 -376 205 35 370 191 418 393
12 52 15 175 15 715 0 457 -3 659 -11 676 -23 50 -95 62 -134 22 l-25 -24 0
-648 c0 -714 0 -720 -62 -815 -62 -97 -163 -151 -283 -150 -148 0 -267 83
-323 225 -15 37 -17 123 -22 737 -5 688 -5 695 -27 735 -85 158 -287 181 -415
48 -19 -21 -281 -420 -582 -888 -300 -467 -555 -856 -565 -863 -17 -12 -22
-11 -40 7 -19 19 -20 24 -7 49 35 67 1090 1702 1125 1742 21 25 67 61 102 80
60 33 70 35 159 35 81 0 103 -4 145 -24 66 -33 131 -100 163 -169 l27 -57 5
-700 5 -700 28 -47 c105 -178 367 -169 453 17 l24 50 0 660 c0 563 2 670 15
720 26 100 85 172 180 223 45 24 61 27 150 27 89 0 106 -3 150 -26 62 -33 128
-99 154 -154 39 -83 41 -131 41 -1007 l0 -849 25 -24 c34 -35 78 -33 116 4
l29 29 0 859 c0 550 -4 881 -11 923 -34 210 -208 384 -422 421 -281 48 -555
-158 -587 -443 -6 -46 -10 -366 -10 -711 l0 -628 -25 -24 c-30 -31 -83 -33
-116 -6 l-24 19 -5 694 c-6 769 -3 732 -75 853 -71 117 -170 194 -295 228 -74
20 -154 26 -217 16z"/>
<path d="M13380 3051 c-72 -22 -119 -63 -145 -123 -13 -32 -15 -109 -15 -538
l0 -501 25 -24 c39 -40 111 -28 134 22 8 16 11 172 11 497 0 511 -1 502 52
494 l23 -3 5 -1010 c3 -555 9 -1018 14 -1028 13 -28 63 -49 97 -42 16 4 38 18
49 32 20 25 20 39 20 1032 0 705 -3 1018 -11 1046 -15 53 -91 129 -144 144
-45 12 -78 13 -115 2z"/>
<path d="M357 3039 c-48 -28 -47 -12 -47 -1117 0 -735 3 -1048 11 -1071 22
-63 107 -77 149 -24 20 25 20 39 20 1094 l0 1067 -26 31 c-27 33 -71 41 -107
20z"/>
<path d="M12670 1217 c-54 -17 -124 -93 -139 -151 -20 -79 0 -148 58 -205 93
-93 209 -94 302 -1 161 160 -4 426 -221 357z m114 -190 c13 -36 -2 -61 -38
-65 -35 -4 -56 13 -56 47 0 36 19 53 55 49 22 -2 32 -10 39 -31z"/>
</g>
</svg>
